<svg xmlns="http://www.w3.org/2000/svg" viewBox="0 0 539.78 193.82"><g data-name="Ebene 2"><g data-name="Ebene 1"><path d="M261.13 104.89Q267 99 267.79 98.5c2.18-1.47 5.15-2.21 8.89-2.21q10.71 0 14 11.47 1.44 5.08 1.44 19.68 0 8.2 3.79 8.21 2.08 0 6.27-5.28t6.15-5.28q3.39 0 3.39 3.39t-5.72 8.86q-5.67 5.35-9.32 5.35-11.07 0-15-8.47-2.61-5.75-2.6-18.25a55.62 55.62 0 00-.14-5.61q-.64-3.26-3.51-3.26-6 0-8.74 10.43L262 136.82q-2.61 10.43-6.12 10.43c-3.91 0-6.43-.82-7.57-2.48-.77-1.12-1.17-3.82-1.17-8.08q0-14.46 1-43.27t1-43.27a3.11 3.11 0 012.34-3.39 24.44 24.44 0 014.7-.26 17.41 17.41 0 015.21.52c1.74.61 2.6 1.95 2.6 4q0 8.61-1.49 25.74T261 102.5z" fill="#4d4d4d"/><path d="M316 126.65l-.39 2.87q0 4.83 1.17 6.91 1.56 2.87 6 2.87 10.29 0 23.46-11.34c1.47-1.31 3-2.61 4.69-3.91q3.39 0 3.39 3.78 0 6.78-11.6 13.82-10.7 6.51-18 6.51-4.43 0-12.51-4.43a17.63 17.63 0 01-8.34-9.12q-1.69-4.44-1.7-12.52a72.2 72.2 0 012.61-19.68Q308.57 89 316.52 89q8.48 0 17.34 5.34 9.9 6 9.9 14.08 0 8.59-10 14.07a32.82 32.82 0 01-17.76 4.16zm15.77-22q0-5.86-5.08-5.87-4.57 0-7.69 8.21a34 34 0 00-2.35 11.87 15.34 15.34 0 0010.56-4.11 13.06 13.06 0 004.56-10.12zm37.28-9.53q1.68-1.44 5.15-4.05c2.3-1.73 4.31-2.6 6.05-2.6q11 0 16.56 12.25a51.18 51.18 0 014.3 21.51q0 10.94-4 17.72-5 8.48-15.12 8.47-8.86 0-16.29-6.91a16.28 16.28 0 01-5.61 1.05c-2.95 0-4.78-1.57-5.47-4.7q-.13-.65-.13-8.34 0-14.72 1.43-36.36l2.18-36.36q.25-6.78 1-8.35c1-2.08 3.4-3.13 7.1-3.13 3.88 0 5.81 1.22 5.81 3.65q0 8.09-1.37 23.07-1.47 15.78-1.59 23.08zm10.29 43.4q7.43 0 7.43-18.12 0-22-4.95-22-5.74 0-10.3 13.43-3.64 10.82-3.65 17.59a7.92 7.92 0 003.78 6.78 13.14 13.14 0 007.69 2.32zm26.98-8.21q-1.44 0-1.44.39 0 .65 7.17 3.12 10.17 3.66 12.91 3.65 3.65 0 3.65-2.47 0-2.87-6.39-6.65a105.29 105.29 0 01-11.86-7.82q-6.36-5.47-6.36-12.38a15.21 15.21 0 017.43-13.69q6.27-3.9 15.78-3.91 17.85 0 17.85 8.86c0 2.7-.92 4-2.74 4a17.54 17.54 0 01-4.5-.85 17.86 17.86 0 00-4.49-.85q-12.9 0-12.9 7.56 0 4.31 6.51 8.48 3.39 2.07 12 7.81 6.51 4.44 6.51 10.69 0 4.69-5.21 7.95a17.69 17.69 0 01-9.65 3q-6.78 0-17.07-3.26-12.25-3.92-12.26-8.34a5.36 5.36 0 011.74-3.4 4.82 4.82 0 013.32-1.89zm54.48-3.66l-.39 2.87q0 4.83 1.17 6.91 1.56 2.87 6 2.87 10.29 0 23.46-11.34c1.47-1.31 3-2.61 4.69-3.91q3.39 0 3.39 3.78 0 6.78-11.6 13.82-10.69 6.51-18 6.51-4.42 0-12.51-4.43a17.67 17.67 0 01-8.34-9.12q-1.69-4.44-1.7-12.52a72.2 72.2 0 012.61-19.68Q453.37 89 461.32 89q8.48 0 17.34 5.34 9.9 6 9.9 14.08 0 8.59-10 14.07a32.75 32.75 0 01-17.76 4.16zm15.77-22q0-5.86-5.08-5.87-4.58 0-7.69 8.21a33.76 33.76 0 00-2.35 11.87 15.34 15.34 0 0010.55-4.13 13.06 13.06 0 004.57-10.1z" fill="#4d4d4d"/><path d="M504.46 87.16c.26-3.64.48-7.34.65-11.08q.92-6.64 6.26-6.38c1.13.08 3.12.22 6 .39 2.35.44 3.52 1.65 3.52 3.65a10.3 10.3 0 00-2 5.6c.08-1.21.13.88.13 6.26a26.42 26.42 0 008 .91 6.37 6.37 0 014.17 2.09q2.21 2.09 2.21 4l-1.4 2.12q-4.69.52-14.08 2.48-1 15.12-1 21.11 0 9.91.13 11.34.78 8.61 4.17 8.6 2.36 0 8.35-2.73 7.43-3.39 8.86-3.78a6.69 6.69 0 011.43 3.52q0 3.39-8.47 8.08-7.83 4.29-11.86 4.3-17 0-16.94-25.41 0-3.78.52-11.28c.34-5 .52-8.75.52-11.28v-2.6q-13.43-1.56-13.43-6 0-2.47 6.78-3.12z" fill="#4d4d4d"/><path d="M197.38 110.76c0 28.27-37.29 51.18-83.29 51.18S30.81 139 30.81 110.76s37.29-51.17 83.28-51.17 83.29 22.91 83.29 51.17z" fill="#8abb14"/><path d="M129.28 10.77c2.11 7.67-2 15.48-9.08 17.44s-14.62-2.65-16.74-10.32 2-15.47 9.08-17.44 14.63 2.66 16.74 10.32z" fill="#b3b3b3" fill-rule="evenodd"/><path d="M120.77 119.68c-3 0-5.36-3.11-6.32-8.54-1-5.74-1.64-13.32-2.3-21.35-1.22-14.8-2.59-31.57-6.91-36.67-2.95-3.49-7.71-5.25-14.16-5.25a41.91 41.91 0 00-11 1.56 5.75 5.75 0 01-1.58.23c-2.25 0-4.15-1.48-4.31-3.37-.09-1 .23-4.51 8.19-5.9 1.12-.19 3-.4 5.38-.66 7.73-.84 20.67-2.26 33.09-5.88a95 95 0 0029.73-15.11c4.35-3.38 8.46-5.25 11.57-5.25 2.2 0 3.78 1 4.22 2.62.59 2.18-.84 5.95-6.8 9.41-5.48 3.18-9.13 9.71-10 17.92-1.19 11 2.53 27.29 16.55 40.18 7.87 7.23 11.43 13.2 10 16.82-.71 1.82-2.65 2.87-5.34 2.87a15.8 15.8 0 01-10.43-4.54c-3.33-3.28-6.62-9.45-10.09-16-4.86-9.15-9.89-18.61-14.6-18.61a3.46 3.46 0 00-1.18.21c-8.58 3.07-10.48 18.78-6.87 31.53 2.77 9.81.81 17.21-1.95 20.86-1.46 1.89-3.18 2.92-4.89 2.92z" fill="#b3b3b3" fill-rule="evenodd"/><path d="M162.12 14c5.46 0 5.57 6.19-2.84 11.08-14.81 8.59-15.06 39.16 6.44 58.92 14.18 13 11.17 18.8 5 18.8a15.2 15.2 0 01-10.07-4.39c-8.11-8-16.64-34.75-25-34.75a4 4 0 00-1.35.24c-8.88 3.17-10.84 19.26-7.2 32.14 3.83 13.55-1.44 23.13-6.3 23.13-2.46 0-4.81-2.46-5.82-8.12-3-16.82-2.61-50.34-9.32-58.26-3.57-4.22-9.27-5.43-14.55-5.43a42.51 42.51 0 00-11.21 1.58 5.21 5.21 0 01-1.43.21c-4.52 0-6.93-6.35 4-8.26 4.53-.79 22.09-1.76 38.53-6.55a96.25 96.25 0 0029.9-15.19c4.77-3.71 8.64-5.15 11.26-5.15m0-1c-3.22 0-7.45 1.9-11.88 5.36a94.4 94.4 0 01-29.57 15c-12.36 3.61-25.28 5-33 5.86-2.39.26-4.28.47-5.4.67-8.39 1.47-8.72 5.3-8.62 6.44.19 2.19 2.26 3.84 4.82 3.84a6.39 6.39 0 001.72-.25 41.61 41.61 0 0110.89-1.54c6.29 0 10.92 1.7 13.77 5.06 4.22 5 5.58 21.67 6.79 36.39.66 8 1.28 15.63 2.31 21.4 1.43 8.09 5.25 9 6.82 9 1.87 0 3.74-1.1 5.26-3.11 2.83-3.75 4.85-11.31 2-21.31-3.47-12.27-1.63-28 6.55-30.91a3 3 0 011-.18c4.4 0 9.57 9.75 14.15 18.34 3.49 6.57 6.8 12.78 10.18 16.12a16.37 16.37 0 0010.79 4.68c2.91 0 5-1.17 5.82-3.2 1.05-2.7.15-7.91-10.15-17.37C152.52 70.48 148.84 54.34 150 43.5c.87-8 4.44-14.44 9.77-17.54 5.11-3 7.88-6.89 7-10-.5-1.88-2.26-3-4.71-3z" fill="#fdfcfb"/><path d="M186.13 56.85c1.62 10.06-4.65 19.44-14 21s-18.26-5.42-19.88-15.49 4.64-19.44 14-21 18.25 5.43 19.88 15.49z" fill="#4d4d4d" fill-rule="evenodd"/><path d="M122.25 88.71c5.92-.38 28.43.83 50-3a123 123 0 0040.22-15.2c20.26-12.5 26.78 1.25 9.9 8.73-20.07 8.9-24.64 47.81 0 76s1.27 29.56-8.44 17.66-17.12-50.45-28.83-47.65-16.5 23-13.65 40c4.55 26.75-16.08 39.23-17.55 17.38s3.68-64.5-3.76-75.54-26-9.58-32.25-8.48c-7 1.22-11.24-8.89 4.36-9.9z" fill="#4d4d4d" fill-rule="evenodd"/><path d="M40.66 61c-1.4 8.68 4 16.77 12.07 18.07s15.75-4.7 17.15-13.37-4-16.76-12.07-18.06S42.06 52.31 40.66 61z" fill="#1a1a1a" fill-rule="evenodd"/><path d="M95.73 88.45c-5.11-.33-24.51.71-43.09-2.58A106.24 106.24 0 0118 72.77C.5 62-5.12 73.84 9.42 80.29c17.31 7.67 21.25 41.22 0 65.5S8.33 171.26 16.7 161s14.77-43.48 24.86-41.07 14.22 19.85 11.76 34.45c-3.89 23.11 13.85 33.85 15.12 15s-3.17-55.61 3.25-65.12S94.08 96 99.49 97c6.02 1 9.69-7.69-3.76-8.55z" fill="#1a1a1a" fill-rule="evenodd"/></g></g></svg>