<?xml version="1.0" encoding="UTF-8"?><svg xmlns="http://www.w3.org/2000/svg" viewBox="0 0 23.62 23.62"><defs><style>.d{fill:#a1b90a;}</style></defs><g id="a"/><g id="b"><g id="c"><path class="d" d="M11.81,0C5.29,0,0,5.29,0,11.81s5.29,11.81,11.81,11.81,11.81-5.29,11.81-11.81S18.33,0,11.81,0Zm2.46,18.31c-.61,.24-1.09,.42-1.45,.55-.36,.13-.78,.19-1.26,.19-.74,0-1.31-.18-1.72-.54s-.61-.81-.61-1.37c0-.22,.02-.43,.05-.66,.03-.22,.08-.48,.15-.76l.76-2.69c.07-.26,.12-.5,.17-.73,.05-.23,.07-.44,.07-.63,0-.34-.07-.58-.21-.72-.14-.14-.41-.2-.81-.2-.2,0-.4,.03-.61,.09-.2,.06-.38,.12-.53,.18l.2-.83c.5-.2,.98-.38,1.43-.52,.45-.15,.89-.22,1.29-.22,.73,0,1.3,.18,1.69,.53,.4,.35,.59,.81,.59,1.38,0,.12-.01,.32-.04,.62-.03,.3-.08,.56-.15,.81l-.76,2.68c-.06,.22-.12,.46-.17,.74-.05,.27-.07,.49-.07,.63,0,.36,.08,.6,.24,.73,.16,.13,.44,.19,.83,.19,.19,0,.39-.03,.63-.1,.23-.06,.4-.12,.51-.17l-.2,.83Zm-.13-10.88c-.35,.33-.78,.49-1.27,.49s-.92-.16-1.28-.49c-.35-.33-.53-.73-.53-1.19s.18-.86,.53-1.2c.36-.33,.78-.5,1.28-.5s.92,.16,1.27,.5c.35,.33,.53,.73,.53,1.2s-.18,.86-.53,1.19Z"/></g></g></svg>