<?xml version="1.0" encoding="UTF-8"?><svg xmlns="http://www.w3.org/2000/svg" viewBox="0 0 480 472"><defs><style>.e{fill:#fff;}</style></defs><g id="a"/><g id="b"><g id="c"><g id="d"><path class="e" d="M432,128H120V48c0-8.84,7.16-16,16-16h200c8.84,0,16,7.16,16,16v48c0,8.84,7.16,16,16,16s16-7.16,16-16V48c0-26.51-21.49-48-48-48H136c-26.51,0-48,21.49-48,48v80H48c-26.51,0-48,21.49-48,48v144c0,26.51,21.49,48,48,48h40v56c0,26.51,21.49,48,48,48h208c26.51,0,48-21.49,48-48h0v-56h40c26.51,0,48-21.49,48-48V176c0-26.51-21.49-48-48-48Zm-32,112c-17.67,0-32-14.33-32-32s14.33-32,32-32,32,14.33,32,32-14.33,32-32,32Zm-40,184c0,8.84-7.16,16-16,16H136c-8.84,0-16-7.16-16-16v-88c0-8.84,7.16-16,16-16h208c8.84,0,16,7.16,16,16v88Z"/></g></g></g></svg>