<?xml version="1.0" encoding="UTF-8"?><svg xmlns="http://www.w3.org/2000/svg" viewBox="0 0 118.78 117.18"><defs><style>.d{fill:#a1b90a;}</style></defs><g id="a"/><g id="b"><g id="c"><path class="d" d="M115.97,100.79l-27.31-27.31c4.64-7.39,7.33-16.12,7.33-25.49C95.99,21.49,74.5,0,48,0S0,21.49,0,48s21.49,47.99,48,47.99c10.2,0,19.64-3.19,27.41-8.6l26.98,26.99c1.88,1.87,4.33,2.81,6.79,2.81s4.91-.93,6.79-2.81c3.75-3.75,3.75-9.83,0-13.58Zm-67.97-20.35c-17.92,0-32.44-14.53-32.44-32.44S30.08,15.55,48,15.55s32.44,14.53,32.44,32.44-14.52,32.44-32.44,32.44Z"/></g></g></svg>